<?xml version="1.0" encoding="utf-8"?>
<!-- Generator: Adobe Illustrator 15.0.0, SVG Export Plug-In . SVG Version: 6.00 Build 0)  -->
<!DOCTYPE svg PUBLIC "-//W3C//DTD SVG 1.1//EN" "http://www.w3.org/Graphics/SVG/1.1/DTD/svg11.dtd">
<svg version="1.1" id="Layer_1" xmlns="http://www.w3.org/2000/svg" xmlns:xlink="http://www.w3.org/1999/xlink" x="0px" y="0px"
	 width="236.971px" height="59.992px" viewBox="0 0 236.971 59.992" enable-background="new 0 0 236.971 59.992"
	 xml:space="preserve">
<text transform="matrix(1 0 0 1 137.8623 41.6104)" fill="#E15119" font-family="'Courier'" font-size="20">scanner</text>
<path fill="#98B2C4" d="M29.889,38.803c0.204,0.25,0.306,0.566,0.306,0.951c0,0.658-0.408,1.213-1.224,1.666
	c-0.793,0.454-1.661,0.805-2.601,1.055c-0.941,0.249-1.842,0.373-2.703,0.373c-2.63,0-4.704-0.764-6.222-2.295
	c-1.519-1.529-2.278-3.621-2.278-6.272c0-1.7,0.334-3.207,1.003-4.522c0.668-1.314,1.609-2.334,2.822-3.06
	c1.212-0.726,2.589-1.088,4.131-1.088c2.221,0,3.978,0.714,5.27,2.142s1.938,3.355,1.938,5.78c0,0.907-0.408,1.36-1.224,1.36H18.601
	c0.227,3.514,1.916,5.27,5.066,5.27c0.838,0,1.564-0.113,2.176-0.34s1.258-0.521,1.938-0.884c0.068-0.046,0.255-0.142,0.561-0.289
	s0.561-0.222,0.765-0.222C29.424,38.428,29.685,38.553,29.889,38.803z M20.029,29.385c-0.794,0.838-1.27,2.018-1.428,3.535h8.772
	c-0.068-1.541-0.459-2.725-1.173-3.553c-0.714-0.827-1.717-1.24-3.009-1.24C21.876,28.127,20.822,28.546,20.029,29.385z"/>
<path fill="#98B2C4" d="M54.879,18.963c0.317,0.329,0.476,0.754,0.476,1.275v20.773c0,0.522-0.159,0.947-0.476,1.275
	c-0.318,0.328-0.737,0.493-1.258,0.493c-0.522,0-0.941-0.159-1.258-0.476c-0.317-0.317-0.476-0.748-0.476-1.293v-9.146H38.491v9.146
	c0,0.522-0.159,0.947-0.476,1.275s-0.737,0.493-1.258,0.493c-0.521,0-0.941-0.159-1.258-0.476c-0.318-0.317-0.476-0.748-0.476-1.293
	V20.238c0-0.521,0.158-0.946,0.476-1.275c0.317-0.328,0.736-0.493,1.258-0.493c0.521,0,0.94,0.165,1.258,0.493
	c0.317,0.329,0.476,0.754,0.476,1.275v8.771h13.396v-8.771c0-0.521,0.159-0.946,0.476-1.275c0.317-0.328,0.736-0.493,1.258-0.493
	C54.142,18.47,54.561,18.635,54.879,18.963z"/>
<path fill="#98B2C4" d="M74.803,38.803c0.204,0.25,0.306,0.566,0.306,0.951c0,0.658-0.408,1.213-1.224,1.666
	c-0.793,0.454-1.661,0.805-2.601,1.055c-0.941,0.249-1.842,0.373-2.703,0.373c-2.63,0-4.704-0.764-6.222-2.295
	c-1.519-1.529-2.278-3.621-2.278-6.272c0-1.7,0.334-3.207,1.003-4.522c0.668-1.314,1.609-2.334,2.822-3.06
	c1.212-0.726,2.589-1.088,4.131-1.088c2.221,0,3.978,0.714,5.27,2.142s1.938,3.355,1.938,5.78c0,0.907-0.408,1.36-1.224,1.36H63.515
	c0.227,3.514,1.916,5.27,5.066,5.27c0.838,0,1.564-0.113,2.176-0.34s1.258-0.521,1.938-0.884c0.068-0.046,0.255-0.142,0.561-0.289
	s0.561-0.222,0.765-0.222C74.338,38.428,74.599,38.553,74.803,38.803z M64.943,29.385c-0.794,0.838-1.27,2.018-1.428,3.535h8.772
	c-0.068-1.541-0.459-2.725-1.173-3.553c-0.714-0.827-1.717-1.24-3.009-1.24C66.79,28.127,65.736,28.546,64.943,29.385z"/>
<path fill="#98B2C4" d="M91.412,27.276c1.076,1.11,1.615,2.8,1.615,5.065v8.807c0,0.521-0.147,0.924-0.442,1.207
	c-0.295,0.283-0.703,0.425-1.224,0.425c-0.499,0-0.896-0.147-1.19-0.442c-0.295-0.294-0.442-0.691-0.442-1.189v-1.258
	c-0.431,0.951-1.071,1.683-1.921,2.193c-0.85,0.51-1.842,0.764-2.975,0.764c-1.088,0-2.086-0.221-2.992-0.662
	c-0.907-0.442-1.615-1.06-2.125-1.854c-0.51-0.793-0.765-1.677-0.765-2.652c0-1.201,0.312-2.146,0.935-2.838
	s1.654-1.185,3.094-1.479c1.439-0.294,3.417-0.442,5.933-0.442h0.782v-0.985c0-1.27-0.261-2.188-0.782-2.755
	c-0.522-0.565-1.36-0.85-2.516-0.85c-0.794,0-1.542,0.102-2.244,0.307c-0.703,0.203-1.474,0.498-2.312,0.884
	c-0.612,0.34-1.043,0.51-1.292,0.51c-0.34,0-0.618-0.124-0.833-0.374c-0.216-0.249-0.323-0.566-0.323-0.951
	c0-0.341,0.096-0.641,0.289-0.902c0.192-0.26,0.504-0.515,0.935-0.764c0.793-0.432,1.723-0.777,2.788-1.037
	c1.065-0.261,2.097-0.392,3.094-0.392C88.697,25.61,90.334,26.166,91.412,27.276z M88.504,39.023c0.793-0.85,1.19-1.943,1.19-3.281
	v-0.884h-0.612c-1.768,0-3.128,0.079-4.08,0.237c-0.952,0.16-1.632,0.426-2.04,0.8s-0.612,0.913-0.612,1.614
	c0,0.816,0.294,1.485,0.884,2.006c0.589,0.522,1.326,0.783,2.21,0.783C86.691,40.299,87.711,39.873,88.504,39.023z"/>
<path fill="#98B2C4" d="M98.721,42.373c-0.329-0.272-0.493-0.681-0.493-1.225V20.136c0-0.544,0.164-0.957,0.493-1.241
	c0.328-0.283,0.742-0.425,1.241-0.425s0.907,0.142,1.224,0.425c0.317,0.284,0.476,0.697,0.476,1.241v21.012
	c0,0.544-0.159,0.952-0.476,1.225c-0.317,0.271-0.726,0.407-1.224,0.407S99.049,42.645,98.721,42.373z"/>
<path fill="#98B2C4" d="M116.163,40.553c0.215,0.217,0.323,0.517,0.323,0.902c0,0.453-0.176,0.799-0.527,1.036
	c-0.352,0.238-0.867,0.335-1.547,0.289l-0.918-0.067c-1.836-0.137-3.208-0.697-4.114-1.684c-0.907-0.986-1.36-2.441-1.36-4.369
	v-7.99h-2.04c-0.998,0-1.496-0.441-1.496-1.326c0-0.407,0.13-0.73,0.391-0.969c0.26-0.238,0.629-0.356,1.105-0.356h2.04v-3.502
	c0-0.521,0.153-0.929,0.459-1.224c0.306-0.294,0.719-0.442,1.241-0.442s0.94,0.147,1.258,0.442c0.317,0.295,0.476,0.703,0.476,1.224
	v3.502h3.366c0.476,0,0.844,0.118,1.105,0.356c0.26,0.238,0.391,0.562,0.391,0.969c0,0.432-0.131,0.76-0.391,0.986
	c-0.261,0.227-0.629,0.34-1.105,0.34h-3.366v8.229c0,1.065,0.221,1.848,0.663,2.346c0.442,0.499,1.116,0.782,2.023,0.85l0.952,0.068
	C115.59,40.208,115.947,40.338,116.163,40.553z"/>
<path fill="#98B2C4" d="M134.369,32.309v8.84c0,0.498-0.158,0.896-0.476,1.189c-0.317,0.295-0.737,0.442-1.258,0.442
	c-0.522,0-0.935-0.147-1.241-0.442c-0.306-0.294-0.459-0.691-0.459-1.189v-8.807c0-1.359-0.278-2.356-0.833-2.991
	c-0.556-0.635-1.422-0.952-2.601-0.952c-1.383,0-2.494,0.431-3.332,1.292c-0.838,0.862-1.258,2.018-1.258,3.468v7.99
	c0,0.498-0.153,0.896-0.459,1.189c-0.306,0.295-0.72,0.442-1.241,0.442s-0.94-0.147-1.258-0.442
	c-0.318-0.294-0.476-0.691-0.476-1.189V20.103c0-0.499,0.164-0.896,0.493-1.19c0.328-0.294,0.753-0.442,1.275-0.442
	c0.499,0,0.901,0.142,1.207,0.425c0.306,0.284,0.459,0.663,0.459,1.139v8.5c0.566-0.952,1.326-1.677,2.278-2.176
	c0.952-0.499,2.04-0.748,3.264-0.748C132.397,25.61,134.369,27.844,134.369,32.309z"/>
</svg>
